<?xml version="1.0" encoding="utf-8"?>
<svg viewBox="0 0 500 500" xmlns="http://www.w3.org/2000/svg">
  <g transform="matrix(1, 0, 0, 1, 17.357836, 93.632965)">
    <path d="M 375.559 300.582 C 362.354 300.582 354.627 293.807 352.373 280.264 C 349.494 263.14 346.617 239.005 343.742 207.863 L 335.595 135.467 C 333.995 124.727 331.257 114.218 327.393 103.937 C 321.912 89.926 315.943 82.918 309.499 82.918 C 303.534 82.918 292.406 87.823 276.121 97.627 C 260.644 106.665 250.481 113.899 245.65 119.346 C 245.487 133.984 245.889 148.616 246.854 163.251 L 254.069 225.607 C 257.114 250.21 258.643 270.525 258.643 286.555 C 258.643 293.405 256.432 299.046 252.001 303.49 C 247.57 307.925 241.899 310.143 234.978 310.143 C 228.058 310.143 222.382 307.918 217.957 303.481 C 213.525 299.037 211.314 293.391 211.314 286.532 C 211.314 267.678 209.354 239.819 205.433 202.961 C 201.514 166.106 199.554 138.251 199.554 119.39 C 199.554 102.87 197.132 90.013 192.286 80.819 C 180.98 85.808 169.51 93.91 157.89 105.134 L 129.309 135.988 C 126.725 139.728 122.606 144.643 116.955 150.719 C 116.955 160.069 116.062 173.865 114.296 192.097 C 112.53 210.337 111.644 223.817 111.644 232.543 C 111.644 237.222 112.406 243.764 113.935 252.181 C 115.464 260.594 116.231 266.675 116.231 270.415 C 116.231 276.807 113.776 282.184 108.867 286.546 C 103.955 290.908 98.205 293.089 91.601 293.089 C 73.406 293.089 64.308 273.08 64.308 233.059 C 64.308 223.72 65.194 209.787 66.965 191.255 C 68.733 172.726 69.623 158.788 69.623 149.444 C 69.623 141.194 68.857 128.814 67.328 112.308 C 65.792 95.807 65.029 83.343 65.029 74.935 C 65.029 39.587 73.251 21.911 89.705 21.911 C 95.995 21.911 101.762 24.543 107 29.79 C 112.241 35.047 114.865 40.788 114.865 47.017 C 114.865 49.978 114.458 54.57 113.657 60.797 C 112.851 67.031 112.449 71.776 112.449 75.049 L 112.935 99.575 C 121.31 82.918 133.639 67.848 149.91 54.378 C 166.18 40.912 180.041 34.173 191.48 34.173 C 216.767 34.173 234.172 46.337 243.68 70.668 C 252.54 59.302 263.093 50.776 275.34 45.088 C 287.585 39.404 301.605 36.564 317.395 36.564 C 344.301 36.564 362.665 50.584 372.497 78.619 C 374.421 84.225 377.712 106.109 382.371 144.269 C 386.864 171.062 392.652 215.685 399.719 278.137 C 400.206 284.365 398.027 289.656 393.2 294.022 C 388.355 298.394 382.485 300.582 375.559 300.582 Z"/>
  </g>
</svg>