<!-- Generator: Adobe Illustrator 19.1.0, SVG Export Plug-In  -->
<svg version="1.1"
	 xmlns="http://www.w3.org/2000/svg" xmlns:xlink="http://www.w3.org/1999/xlink" xmlns:a="http://ns.adobe.com/AdobeSVGViewerExtensions/3.0/"
	 x="0px" y="0px" width="23.9px" height="23.9px" viewBox="0 0 23.9 23.9" style="enable-background:new 0 0 23.9 23.9;"
	 xml:space="preserve">
<style type="text/css">
</style>
<defs>
</defs>
<g>
	<path d="M17.4,6C15.6,6,14,7.5,14,9.4s1.5,3.4,3.4,3.4s3.4-1.5,3.4-3.4S19.2,6,17.4,6z M17.4,11.2
		c-1,0-1.9-0.8-1.9-1.9s0.8-1.9,1.9-1.9s1.9,0.8,1.9,1.9S18.4,11.2,17.4,11.2z"/>
	<polygon points="11.1,14.7 7.9,11.4 2.2,17.1 3.2,18.1 7.9,13.5 12.2,18.1 13.4,17.1 12.2,15.8 13.5,14.8 17.5,18.1 
		18.5,17 13.6,12.9 	"/>
	<path d="M0,0v23.9h23.9V0H0z M1.5,22.3V1.4h20.9v20.9H1.5z"/>
</g>
</svg>