<?xml version="1.0" encoding="utf-8"?>
<svg viewBox="0 0 500 500" xmlns="http://www.w3.org/2000/svg">
  <path d="M 181.08 197.822 L 181.08 197.822 L 181.08 197.822 C 181.08 197.282 181.263 196.842 181.63 196.502 L 181.63 196.502 L 181.63 196.502 C 181.99 196.169 182.447 196.002 183 196.002 L 183 196.002 L 183 196.002 C 183.553 196.002 184.01 196.169 184.37 196.502 L 184.37 196.502 L 184.37 196.502 C 184.737 196.842 184.92 197.282 184.92 197.822 L 184.92 197.822 L 184.92 197.822 C 184.92 198.349 184.74 198.779 184.38 199.112 L 184.38 199.112 L 184.38 199.112 C 184.02 199.445 183.56 199.612 183 199.612 L 183 199.612 L 183 199.612 C 182.44 199.612 181.98 199.445 181.62 199.112 L 181.62 199.112 L 181.62 199.112 C 181.26 198.779 181.08 198.349 181.08 197.822 Z M 181.08 188.222 L 181.08 188.222 L 181.08 188.222 C 181.08 187.682 181.263 187.245 181.63 186.912 L 181.63 186.912 L 181.63 186.912 C 181.99 186.572 182.447 186.402 183 186.402 L 183 186.402 L 183 186.402 C 183.553 186.402 184.01 186.572 184.37 186.912 L 184.37 186.912 L 184.37 186.912 C 184.737 187.245 184.92 187.682 184.92 188.222 L 184.92 188.222 L 184.92 188.222 C 184.92 188.755 184.74 189.185 184.38 189.512 L 184.38 189.512 L 184.38 189.512 C 184.02 189.845 183.56 190.012 183 190.012 L 183 190.012 L 183 190.012 C 182.44 190.012 181.98 189.845 181.62 189.512 L 181.62 189.512 L 181.62 189.512 C 181.26 189.185 181.08 188.755 181.08 188.222 ZM 192.863 179.632 L 192.863 182.242 L 191.193 182.242 L 191.193 200.842 L 192.863 200.842 L 192.863 203.452 L 187.803 203.452 L 187.803 179.632 L 192.863 179.632 Z" transform="matrix(11.764908790588379, 0, 0, 12.793692588806152, -2125.1884765625, -2211.325927734375)" style="fill: rgb(51, 51, 51); white-space: pre;"/>
  <path d="M 196.861 182.422 L 196.861 202.642 L 195.111 202.642 L 195.111 182.422 L 196.861 182.422 ZM 202.709 182.422 L 202.709 202.642 L 200.959 202.642 L 200.959 182.422 L 202.709 182.422 ZM 208.557 182.422 L 208.557 202.642 L 206.807 202.642 L 206.807 182.422 L 208.557 182.422 Z" transform="matrix(11.764908790588379, 0, 0, 12.793692588806152, -2125.1884765625, -2211.325927734375)" style="fill: rgb(51, 51, 51); white-space: pre;"/>
  <path d="M 210.754 182.242 L 210.754 179.632 L 215.814 179.632 L 215.814 203.452 L 210.754 203.452 L 210.754 200.842 L 212.434 200.842 L 212.434 182.242 L 210.754 182.242 ZM 218.732 197.822 L 218.732 197.822 L 218.732 197.822 C 218.732 197.282 218.916 196.842 219.282 196.502 L 219.282 196.502 L 219.282 196.502 C 219.642 196.169 220.099 196.002 220.652 196.002 L 220.652 196.002 L 220.652 196.002 C 221.206 196.002 221.662 196.169 222.022 196.502 L 222.022 196.502 L 222.022 196.502 C 222.389 196.842 222.572 197.282 222.572 197.822 L 222.572 197.822 L 222.572 197.822 C 222.572 198.349 222.392 198.779 222.032 199.112 L 222.032 199.112 L 222.032 199.112 C 221.672 199.445 221.212 199.612 220.652 199.612 L 220.652 199.612 L 220.652 199.612 C 220.092 199.612 219.632 199.445 219.272 199.112 L 219.272 199.112 L 219.272 199.112 C 218.912 198.779 218.732 198.349 218.732 197.822 Z M 218.732 188.222 L 218.732 188.222 L 218.732 188.222 C 218.732 187.682 218.916 187.245 219.282 186.912 L 219.282 186.912 L 219.282 186.912 C 219.642 186.572 220.099 186.402 220.652 186.402 L 220.652 186.402 L 220.652 186.402 C 221.206 186.402 221.662 186.572 222.022 186.912 L 222.022 186.912 L 222.022 186.912 C 222.389 187.245 222.572 187.682 222.572 188.222 L 222.572 188.222 L 222.572 188.222 C 222.572 188.755 222.392 189.185 222.032 189.512 L 222.032 189.512 L 222.032 189.512 C 221.672 189.845 221.212 190.012 220.652 190.012 L 220.652 190.012 L 220.652 190.012 C 220.092 190.012 219.632 189.845 219.272 189.512 L 219.272 189.512 L 219.272 189.512 C 218.912 189.185 218.732 188.755 218.732 188.222 Z" transform="matrix(11.764908790588379, 0, 0, 12.793692588806152, -2125.1884765625, -2211.325927734375)" style="fill: rgb(51, 51, 51); white-space: pre;"/>
</svg>