<?xml version="1.0" encoding="utf-8"?>
<svg width="37px" height="29px" viewBox="0 0 37 29" version="1.1" xmlns="http://www.w3.org/2000/svg">
  <title>accordion (4)</title>
  <desc>Created with Sketch.</desc>
  <g id="Page-1" stroke="none" stroke-width="1" fill="none" fill-rule="evenodd">
    <g id="accordion-(4)" fill-rule="nonzero" fill="#000000">
      <path d="M27.5967246,2.42163704 L27.1699961,4.00544903 L25.4737051,1.75634977 L22.0086406,2.61774516 L18.4986992,0 L14.9887578,2.6176733 L11.5236934,1.75627791 L9.83925391,3.98978338 L9.39828906,2.3531537 L0,4.85735879 L6.50549609,29 L15.9037129,26.4958668 L15.5289434,25.1050729 L18.4987715,24.5143771 L21.4837031,25.1080192 L21.0913008,26.5642782 L30.4945762,28.99073 L37,4.84801689 L27.5967246,2.42163704 Z M5.98633984,9.93992933 L5.35676172,7.60359106 L8.09794141,6.8731979 L8.72751953,9.20953618 L5.98633984,9.93992933 Z M6.61591797,12.2764113 L9.35709766,11.5460182 L9.98660352,13.8824283 L7.24549609,14.6128215 L6.61591797,12.2764113 Z M7.87500195,16.9490879 L10.6161094,16.2186947 L11.2456152,18.5551048 L8.50458008,19.285498 L7.87500195,16.9490879 Z M9.76373633,23.9583901 L9.1341582,21.6220518 L11.8752656,20.8916587 L12.5048437,23.227997 L9.76373633,23.9583901 Z M14.8979922,22.7639199 L10.6395957,6.96000575 L12.5007246,4.49244966 L14.1868984,4.9116137 L17.105418,22.3249223 L14.8979922,22.7639199 Z M19.8919805,22.3249223 L22.8105,4.9116137 L24.4967461,4.49244966 L26.3696543,6.97559954 L22.1145098,22.7669381 L19.8919805,22.3249223 Z M28.0170215,24.167002 L25.6675215,23.5410226 L26.2970273,21.2046125 L28.6465996,21.8305919 L28.0170215,24.167002 Z M29.2761055,19.4942536 L26.9265332,18.8682023 L27.5560391,16.5318641 L29.9056113,17.1578435 L29.2761055,19.4942536 Z M30.5352617,14.8212896 L28.1856895,14.1953821 L28.8151953,11.8589719 L31.1647676,12.4849514 L30.5352617,14.8212896 Z M29.4447734,9.52263367 L30.0742793,7.18622354 L32.4238516,7.81220295 L31.7943457,10.1485412 L29.4447734,9.52263367 Z" id="Shape"/>
    </g>
  </g>
</svg>