<?xml version="1.0" encoding="UTF-8"?>
<svg width="3px" height="13px" viewBox="0 0 3 13" version="1.1" xmlns="http://www.w3.org/2000/svg" xmlns:xlink="http://www.w3.org/1999/xlink">
    <!-- Generator: Sketch 47 (45396) - http://www.bohemiancoding.com/sketch -->
    <title>more copy</title>
    <desc>Created with Sketch.</desc>
    <defs></defs>
    <g id="Page-1" stroke="none" stroke-width="1" fill="none" fill-rule="evenodd" opacity="0.604619565">
        <g id="Artboard" transform="translate(-307.000000, -45.000000)" fill-rule="nonzero" fill="#000000">
            <g id="more-copy" transform="translate(307.000000, 45.000000)">
                <path d="M1.5,3 C2.3270625,3 3,2.3270625 3,1.5 C3,0.6729375 2.3270625,0 1.5,0 C0.6729375,0 0,0.6729375 0,1.5 C0,2.3270625 0.6729375,3 1.5,3 Z" id="Shape"></path>
                <path d="M1.5,10 C0.6729375,10 0,10.6729375 0,11.5 C0,12.3270625 0.6729375,13 1.5,13 C2.3270625,13 3,12.3270625 3,11.5 C3,10.6729375 2.3270625,10 1.5,10 Z" id="Shape"></path>
                <path d="M1.5,5 C0.6729375,5 0,5.6729375 0,6.5 C0,7.3270625 0.6729375,8 1.5,8 C2.3270625,8 3,7.3270625 3,6.5 C3,5.6729375 2.3270625,5 1.5,5 Z" id="Shape"></path>
            </g>
        </g>
    </g>
</svg>