<?xml version="1.0" encoding="UTF-8"?>
<svg width="16px" height="14px" viewBox="0 0 16 14" version="1.1" xmlns="http://www.w3.org/2000/svg" xmlns:xlink="http://www.w3.org/1999/xlink">
    <g id="Page-1" stroke="none" stroke-width="1" fill="none" fill-rule="evenodd">
        <g id="Artboard" transform="translate(-289.000000, -298.000000)" fill-rule="nonzero" fill="#000000">
            <g id="share-option-copy-2" transform="translate(289.000000, 298.000000)">
                <path d="M15.8304702,4.64625555 L11.2589836,0.166292332 C11.1458699,0.055440993 11.0119912,0 10.8572222,0 C10.7024532,0 10.5684806,0.055440993 10.4554607,0.166292332 C10.3423471,0.277204965 10.2857121,0.408467415 10.2857121,0.56011033 L10.2857121,2.80009194 L8.28572378,2.80009194 C4.0415068,2.80009194 1.43748473,3.97553906 0.473063384,6.32637201 C0.15767737,7.10793984 0,8.0793065 0,9.24013485 C0,10.2084061 0.377994125,11.5237889 1.13391983,13.1863444 C1.15174531,13.2272586 1.18289301,13.2971038 1.22761309,13.3962479 C1.27230189,13.4953307 1.31242487,13.5828287 1.34813839,13.6587421 C1.383977,13.7344717 1.4226927,13.7986471 1.46431678,13.8510847 C1.53568127,13.9502901 1.61905451,14 1.7143114,14 C1.8035952,14 1.87355241,13.9708544 1.92418305,13.9125326 C1.97468859,13.8542414 1.99998827,13.7812395 1.99998827,13.6939559 C1.99998827,13.6413038 1.99254535,13.5641339 1.97762823,13.4619864 C1.96274239,13.3598389 1.95526819,13.2914647 1.95526819,13.2564042 C1.92546523,12.8598892 1.91057939,12.5008559 1.91057939,12.1802544 C1.91057939,11.591121 1.96274239,11.0631904 2.06681821,10.5965544 C2.17105039,10.1298264 2.31537429,9.72595609 2.49994625,9.38466759 C2.68448694,9.0432565 2.92250409,8.74888903 3.21424788,8.50095226 C3.50586658,8.25301548 3.81981404,8.05037543 4.15612155,7.89284823 C4.4924916,7.73529038 4.88831121,7.61132199 5.3436742,7.52094306 C5.79900592,7.43053348 6.25730855,7.36779843 6.71867591,7.33276855 C7.18004327,7.29773867 7.70236129,7.28033099 8.28572378,7.28033099 L10.2857121,7.28033099 L10.2857121,9.5203739 C10.2857121,9.67201681 10.342222,9.80330991 10.4552418,9.91409995 C10.5684493,10.0248287 10.7023281,10.080331 10.8570032,10.080331 C11.011741,10.080331 11.1457136,10.0248287 11.2589836,9.91409995 L15.8303764,5.43398349 C15.9434901,5.32313216 16,5.191931 16,5.04025744 C15.9999687,4.88861452 15.9434901,4.75732142 15.8304702,4.64625555 Z" id="Shape"></path>
            </g>
        </g>
    </g>
</svg>